<svg xmlns="http://www.w3.org/2000/svg" xmlns:xlink="http://www.w3.org/1999/xlink" viewBox="0 0 48 48" version="1.1" width="32" height="32">
<g id="surface1">
<path style=" fill:#03A9F4;" d="M 6.632813 16.601563 C 6.605469 16.601563 6.578125 16.617188 6.5625 16.636719 C 4.613281 19.375 3.4375 21.230469 2.222656 23.480469 L 2.097656 23.726563 L 2.0625 23.808594 C 1.957031 24.023438 1.984375 24.265625 2.132813 24.496094 C 2.851563 25.621094 6.890625 26.933594 15.914063 26.933594 C 22.636719 26.933594 29.785156 25.851563 29.785156 23.84375 C 29.785156 21.902344 22.726563 20.746094 15.914063 20.746094 C 13.648438 20.746094 11.40625 21.058594 10.761719 21.164063 C 11.378906 20.214844 13.9375 16.769531 13.964844 16.738281 C 13.976563 16.71875 13.984375 16.707031 13.984375 16.6875 C 13.984375 16.671875 13.980469 16.660156 13.976563 16.644531 C 13.957031 16.621094 13.925781 16.597656 13.894531 16.597656 L 6.632813 16.597656 M 9.261719 23.84375 C 9.261719 23.425781 11.789063 22.84375 15.914063 22.84375 C 20.035156 22.84375 22.558594 23.425781 22.558594 23.84375 C 22.558594 24.265625 20.035156 24.847656 15.914063 24.847656 C 11.789063 24.847656 9.261719 24.265625 9.261719 23.84375 "/>
<path style=" fill:#03A9F4;" d="M 11.738281 33.949219 C 11.738281 33.949219 45.273438 35.3125 45.988281 23.613281 C 46.570313 14.117188 22.75 15.023438 22.726563 15.023438 C 22.703125 15.023438 22.542969 15.035156 22.542969 15.167969 C 22.542969 15.285156 22.628906 15.320313 22.714844 15.320313 C 29.316406 15.320313 40.066406 17.941406 39.714844 23.617188 C 39.433594 28.238281 31.046875 33.648438 11.746094 33.648438 C 11.632813 33.648438 11.554688 33.726563 11.554688 33.796875 C 11.558594 33.871094 11.597656 33.9375 11.738281 33.949219 "/>
</g>
</svg>