<?xml version="1.0" standalone="no"?><!DOCTYPE svg PUBLIC "-//W3C//DTD SVG 1.1//EN" "http://www.w3.org/Graphics/SVG/1.1/DTD/svg11.dtd"><svg xmlns:xlink="http://www.w3.org/1999/xlink" viewBox="0 0 48 48" version="1.1" width="32" height="32" xmlns="http://www.w3.org/2000/svg"><defs xmlns="http://www.w3.org/1999/xhtml"><style type="text/css"><![CDATA[]]></style></defs>
<g id="surface1">
<path style=" fill:#455A64;" d="M 44 33 C 43 38 39 38 39 38 C 39 38 32 39 24 39 C 16 39 9 38 9 38 C 9 38 5 38 4 33 C 4 33 3 28 3 24 C 3 20 4 15 4 15 C 5 10 9 10 9 10 C 9 10 15 9 24 9 C 33 9 39 10 39 10 C 39 10 43 10 44 15 C 44 15 45 20 45 24 C 45 28 44 33 44 33 Z "/>
<path style=" fill:#FFFFFF;" d="M 23 27 C 22.90625 28.996094 22.308594 30.433594 21.203125 31.460938 C 20.101563 32.484375 18.546875 33 16.539063 33 C 14.425781 33 12.808594 32.347656 11.6875 31.046875 C 10.5625 29.738281 10 27.882813 10 25.46875 L 10 22.519531 C 10 20.113281 10.582031 18.261719 11.742188 16.957031 C 12.90625 15.652344 14.519531 15 16.589844 15 C 18.625 15 20.167969 15.535156 21.226563 16.601563 C 22.28125 17.667969 22.855469 19.003906 23 21 L 19.21875 21 C 19.183594 19.765625 19.007813 19.109375 18.636719 18.640625 C 18.261719 18.171875 17.582031 17.9375 16.589844 17.9375 C 15.582031 17.9375 14.867188 18.265625 14.449219 18.929688 C 14.027344 19.589844 13.808594 20.679688 13.78125 22.195313 L 13.78125 25.503906 C 13.78125 27.246094 13.988281 28.441406 14.402344 29.089844 C 14.816406 29.738281 15.527344 30.066406 16.539063 30.066406 C 17.527344 30.066406 18.214844 29.839844 18.589844 29.386719 C 18.964844 28.933594 19.179688 28.1875 19.230469 27 Z "/>
<path style=" fill:#FFFFFF;" d="M 38 27 C 37.90625 28.996094 37.28125 30.433594 36.179688 31.460938 C 35.078125 32.484375 33.519531 33 31.511719 33 C 29.402344 33 27.785156 32.347656 26.660156 31.046875 C 25.535156 29.738281 25 27.882813 25 25.46875 L 25 22.519531 C 25 20.113281 25.554688 18.261719 26.71875 16.957031 C 27.882813 15.652344 29.496094 15 31.5625 15 C 33.597656 15 35.140625 15.535156 36.199219 16.601563 C 37.253906 17.667969 37.855469 19.003906 38 21 L 34.21875 21 C 34.183594 19.765625 33.980469 19.109375 33.609375 18.640625 C 33.238281 18.171875 32.554688 17.9375 31.566406 17.9375 C 30.554688 17.9375 29.84375 18.265625 29.421875 18.929688 C 29.003906 19.589844 28.78125 20.679688 28.757813 22.195313 L 28.757813 25.503906 C 28.757813 27.246094 28.964844 28.441406 29.378906 29.089844 C 29.792969 29.738281 30.503906 30.066406 31.511719 30.066406 C 32.503906 30.066406 33.1875 29.839844 33.566406 29.386719 C 33.941406 28.933594 34.179688 28.1875 34.230469 27 Z "/>
</g>
</svg>