<?xml version="1.0" standalone="no"?><!DOCTYPE svg PUBLIC "-//W3C//DTD SVG 1.1//EN" "http://www.w3.org/Graphics/SVG/1.1/DTD/svg11.dtd"><svg xmlns:xlink="http://www.w3.org/1999/xlink" viewBox="0 0 48 48" version="1.1" width="32" height="32" xmlns="http://www.w3.org/2000/svg"><defs xmlns="http://www.w3.org/1999/xhtml"><style type="text/css"><![CDATA[]]></style></defs>
<g id="surface1">
<path style=" fill:#3F51B5;" d="M 43 39 L 43 24 L 39 24 L 39 39 C 39 44 43 48 48 48 L 48 44 C 45.199219 44 43 41.800781 43 39 Z "/>
<path style=" fill:#90A4AE;" d="M 43 24 C 43 34.492188 34.492188 43 24 43 C 13.507813 43 5 34.492188 5 24 C 5 13.507813 13.507813 5 24 5 C 34.492188 5 43 13.507813 43 24 Z "/>
<path style=" fill:#37474F;" d="M 26 24 C 26 25.105469 25.105469 26 24 26 C 22.894531 26 22 25.105469 22 24 C 22 22.894531 22.894531 22 24 22 C 25.105469 22 26 22.894531 26 24 Z "/>
<path style=" fill:#253278;" d="M 29 14 C 29 16.761719 26.761719 19 24 19 C 21.238281 19 19 16.761719 19 14 C 19 11.238281 21.238281 9 24 9 C 26.761719 9 29 11.238281 29 14 Z "/>
<path style=" fill:#253278;" d="M 29 34 C 29 36.761719 26.761719 39 24 39 C 21.238281 39 19 36.761719 19 34 C 19 31.238281 21.238281 29 24 29 C 26.761719 29 29 31.238281 29 34 Z "/>
<path style=" fill:#253278;" d="M 39 24 C 39 26.761719 36.761719 29 34 29 C 31.238281 29 29 26.761719 29 24 C 29 21.238281 31.238281 19 34 19 C 36.761719 19 39 21.238281 39 24 Z "/>
<path style=" fill:#253278;" d="M 19 24 C 19 26.761719 16.761719 29 14 29 C 11.238281 29 9 26.761719 9 24 C 9 21.238281 11.238281 19 14 19 C 16.761719 19 19 21.238281 19 24 Z "/>
</g>
</svg>