<?xml version="1.0" standalone="no"?><!DOCTYPE svg PUBLIC "-//W3C//DTD SVG 1.1//EN" "http://www.w3.org/Graphics/SVG/1.1/DTD/svg11.dtd"><svg xmlns:xlink="http://www.w3.org/1999/xlink" viewBox="0 0 48 48" version="1.1" width="32" height="32" xmlns="http://www.w3.org/2000/svg"><defs xmlns="http://www.w3.org/1999/xhtml"><style type="text/css"><![CDATA[]]></style></defs>
<g id="surface1">
<path style=" fill:#FFA726;" d="M 15 27 C 15 29.207031 13.210938 31 11 31 C 8.789063 31 7 29.207031 7 27 C 7 24.789063 8.789063 23 11 23 C 13.210938 23 15 24.789063 15 27 M 41 27 C 41 24.789063 39.210938 23 37 23 C 34.789063 23 33 24.789063 33 27 C 33 29.207031 34.789063 31 37 31 C 39.210938 31 41 29.207031 41 27 "/>
<path style=" fill:#FFB74D;" d="M 10 19 C 10 6.273438 38 8.714844 38 17 L 38 30 C 38 38.285156 29.832031 45 24 45 C 18.167969 45 10 38.285156 10 30 Z "/>
<path style=" fill:#424242;" d="M 8 19.339844 C 8.472656 13.363281 9.671875 7.480469 17 6 L 19 3 L 24 3 C 33.230469 3 40 10.480469 40 21 L 40 24.398438 L 37 28 C 37 28 37 28.5 37 22 C 37 11.5 23.5 26.375 17 13 C 16.75 18.5 11 21 11 21 L 11 28 L 8 24.398438 L 8 21 C 8 20.433594 7.933594 19.882813 8 19.339844 "/>
<path style=" fill:#784719;" d="M 33 28 C 33 29.105469 32.105469 30 31 30 C 29.894531 30 29 29.105469 29 28 C 29 26.894531 29.894531 26 31 26 C 32.105469 26 33 26.894531 33 28 M 19 28 C 19 26.894531 18.105469 26 17 26 C 15.894531 26 15 26.894531 15 28 C 15 29.105469 15.894531 30 17 30 C 18.105469 30 19 29.105469 19 28 "/>
<path style="fill:none;stroke-width:2;stroke-linecap:butt;stroke-linejoin:miter;stroke:#FF9100;stroke-opacity:1;stroke-miterlimit:10;" d="M 20 38 L 28 38 "/>
</g>
</svg>
