<?xml version="1.0" standalone="no"?><!DOCTYPE svg PUBLIC "-//W3C//DTD SVG 1.1//EN" "http://www.w3.org/Graphics/SVG/1.1/DTD/svg11.dtd"><svg xmlns:xlink="http://www.w3.org/1999/xlink" viewBox="0 0 48 48" version="1.1" width="32" height="32" xmlns="http://www.w3.org/2000/svg"><defs xmlns="http://www.w3.org/1999/xhtml"><style type="text/css"><![CDATA[]]></style></defs>
<g id="surface1">
<path style=" fill:#FF3D00;" d="M 22.917969 11.359375 C 22.917969 11.359375 6.347656 8.019531 4.238281 21.65625 C 2.128906 35.292969 14.652344 39.5625 18.269531 40.378906 C 21.886719 41.195313 38.136719 43.441406 41.546875 28.664063 C 44.371094 16.421875 33.46875 9.042969 24.125 11.636719 Z "/>
<path style=" fill:#DD2C00;" d="M 24.125 11.636719 L 22.917969 11.363281 C 22.917969 11.363281 10.835938 8.933594 5.992188 16.71875 C 7.589844 17.695313 10.207031 18.835938 10.207031 18.835938 C 12.011719 19.613281 13.746094 20.011719 15.359375 20.011719 C 16.957031 20.011719 18.417969 19.632813 19.691406 18.914063 C 20.109375 20.9375 21.265625 23.0625 23.957031 24.707031 L 25.910156 25.902344 L 26.832031 23.804688 C 27.601563 22.042969 27.988281 20.574219 28.082031 19.257813 C 29.117188 19.777344 30.269531 20.109375 31.527344 20.109375 C 33.035156 20.109375 34.5625 19.632813 36.0625 18.695313 C 36.0625 18.695313 38.03125 17.558594 39.292969 16.597656 C 35.859375 12.105469 29.714844 10.085938 24.125 11.636719 Z "/>
<path style=" fill:#4CAF50;" d="M 25 23 C 26.917969 18.625 26.109375 16.640625 24.242188 13 C 26.796875 16.328125 30.207031 20 35 17 C 31.355469 16.03125 32.015625 13.230469 27.484375 12.433594 C 30.882813 12.574219 32.679688 13.636719 35 9 C 31.34375 10.925781 29.207031 6.710938 24.457031 11.054688 C 23.65625 11.550781 22.8125 10.285156 22.171875 10.972656 C 18.738281 5.269531 14.664063 10.367188 13 6 C 13 12.714844 19.441406 10.886719 21 12 C 14.9375 11.488281 15.402344 16.105469 11 17 C 16.792969 19.5 20.550781 17.0625 22.070313 12.910156 C 21.835938 14.53125 19.785156 19.816406 25 23 Z "/>
<path style=" fill:#4CAF50;" d="M 22 12.058594 C 21.976563 12.257813 22.394531 13 23.75 13 C 25.371094 13 24.75 12.191406 24.75 12.191406 C 24.75 12.191406 24.601563 7.519531 28 4.433594 C 27.136719 3.71875 26.230469 4.101563 26.230469 4.101563 C 26.230469 4.101563 22.601563 7.851563 22 12.058594 Z "/>
</g>
</svg>